<svg width="932" height="40" viewBox="0 0 932 40" fill="none" xmlns="http://www.w3.org/2000/svg">
<line y1="-1" x2="48.8365" y2="-1" transform="matrix(-0.675725 0.737154 0.737154 0.675725 66 2)" stroke="white" stroke-width="2"/>
<line y1="-1" x2="48.8365" y2="-1" transform="matrix(-0.675725 0.737154 0.737154 0.675725 66 2)" stroke="white" stroke-width="2"/>
<line x1="0.737154" y1="1.32428" x2="33.7372" y2="37.3243" stroke="white" stroke-width="2"/>
<line x1="0.737154" y1="1.32428" x2="33.7372" y2="37.3243" stroke="white" stroke-width="2"/>
<line y1="-1" x2="48.8365" y2="-1" transform="matrix(-0.675725 0.737154 0.737154 0.675725 130 2)" stroke="white" stroke-width="2"/>
<line y1="-1" x2="48.8365" y2="-1" transform="matrix(-0.675725 0.737154 0.737154 0.675725 130 2)" stroke="white" stroke-width="2"/>
<line x1="64.7372" y1="1.32428" x2="97.7372" y2="37.3243" stroke="white" stroke-width="2"/>
<line x1="64.7372" y1="1.32428" x2="97.7372" y2="37.3243" stroke="white" stroke-width="2"/>
<line x1="97.2628" y1="36.6757" x2="64.2628" y2="0.675727" stroke="white" stroke-width="2"/>
<line x1="97.2628" y1="36.6757" x2="64.2628" y2="0.675727" stroke="white" stroke-width="2"/>
<line y1="-1" x2="48.8365" y2="-1" transform="matrix(0.675725 -0.737154 -0.737154 -0.675725 32 36)" stroke="white" stroke-width="2"/>
<line y1="-1" x2="48.8365" y2="-1" transform="matrix(0.675725 -0.737154 -0.737154 -0.675725 32 36)" stroke="white" stroke-width="2"/>
<line x1="161.263" y1="36.6757" x2="128.263" y2="0.675727" stroke="white" stroke-width="2"/>
<line x1="161.263" y1="36.6757" x2="128.263" y2="0.675727" stroke="white" stroke-width="2"/>
<line y1="-1" x2="48.8365" y2="-1" transform="matrix(0.675725 -0.737154 -0.737154 -0.675725 96 36)" stroke="white" stroke-width="2"/>
<line y1="-1" x2="48.8365" y2="-1" transform="matrix(0.675725 -0.737154 -0.737154 -0.675725 96 36)" stroke="white" stroke-width="2"/>
<line y1="-1" x2="48.8365" y2="-1" transform="matrix(-0.675725 0.737154 0.737154 0.675725 323 3)" stroke="white" stroke-width="2"/>
<line y1="-1" x2="48.8365" y2="-1" transform="matrix(-0.675725 0.737154 0.737154 0.675725 323 3)" stroke="white" stroke-width="2"/>
<line x1="257.737" y1="2.32428" x2="290.737" y2="38.3243" stroke="white" stroke-width="2"/>
<line x1="257.737" y1="2.32428" x2="290.737" y2="38.3243" stroke="white" stroke-width="2"/>
<line y1="-1" x2="48.8365" y2="-1" transform="matrix(-0.675725 0.737154 0.737154 0.675725 387 3)" stroke="white" stroke-width="2"/>
<line y1="-1" x2="48.8365" y2="-1" transform="matrix(-0.675725 0.737154 0.737154 0.675725 387 3)" stroke="white" stroke-width="2"/>
<line x1="321.737" y1="2.32428" x2="354.737" y2="38.3243" stroke="white" stroke-width="2"/>
<line x1="321.737" y1="2.32428" x2="354.737" y2="38.3243" stroke="white" stroke-width="2"/>
<line x1="354.263" y1="37.6757" x2="321.263" y2="1.67573" stroke="white" stroke-width="2"/>
<line x1="354.263" y1="37.6757" x2="321.263" y2="1.67573" stroke="white" stroke-width="2"/>
<line y1="-1" x2="48.8365" y2="-1" transform="matrix(0.675725 -0.737154 -0.737154 -0.675725 289 37)" stroke="white" stroke-width="2"/>
<line y1="-1" x2="48.8365" y2="-1" transform="matrix(0.675725 -0.737154 -0.737154 -0.675725 289 37)" stroke="white" stroke-width="2"/>
<line x1="418.263" y1="37.6757" x2="385.263" y2="1.67573" stroke="white" stroke-width="2"/>
<line x1="418.263" y1="37.6757" x2="385.263" y2="1.67573" stroke="white" stroke-width="2"/>
<line y1="-1" x2="48.8365" y2="-1" transform="matrix(0.675725 -0.737154 -0.737154 -0.675725 353 37)" stroke="white" stroke-width="2"/>
<line y1="-1" x2="48.8365" y2="-1" transform="matrix(0.675725 -0.737154 -0.737154 -0.675725 353 37)" stroke="white" stroke-width="2"/>
<line y1="-1" x2="48.8365" y2="-1" transform="matrix(-0.675725 0.737154 0.737154 0.675725 451 3)" stroke="white" stroke-width="2"/>
<line y1="-1" x2="48.8365" y2="-1" transform="matrix(-0.675725 0.737154 0.737154 0.675725 451 3)" stroke="white" stroke-width="2"/>
<line x1="385.737" y1="2.32428" x2="418.737" y2="38.3243" stroke="white" stroke-width="2"/>
<line x1="385.737" y1="2.32428" x2="418.737" y2="38.3243" stroke="white" stroke-width="2"/>
<line y1="-1" x2="48.8365" y2="-1" transform="matrix(-0.675725 0.737154 0.737154 0.675725 515 3)" stroke="white" stroke-width="2"/>
<line y1="-1" x2="48.8365" y2="-1" transform="matrix(-0.675725 0.737154 0.737154 0.675725 515 3)" stroke="white" stroke-width="2"/>
<line x1="449.737" y1="2.32428" x2="482.737" y2="38.3243" stroke="white" stroke-width="2"/>
<line x1="449.737" y1="2.32428" x2="482.737" y2="38.3243" stroke="white" stroke-width="2"/>
<line x1="482.263" y1="37.6757" x2="449.263" y2="1.67573" stroke="white" stroke-width="2"/>
<line x1="482.263" y1="37.6757" x2="449.263" y2="1.67573" stroke="white" stroke-width="2"/>
<line y1="-1" x2="48.8365" y2="-1" transform="matrix(0.675725 -0.737154 -0.737154 -0.675725 417 37)" stroke="white" stroke-width="2"/>
<line y1="-1" x2="48.8365" y2="-1" transform="matrix(0.675725 -0.737154 -0.737154 -0.675725 417 37)" stroke="white" stroke-width="2"/>
<line x1="546.263" y1="37.6757" x2="513.263" y2="1.67573" stroke="white" stroke-width="2"/>
<line x1="546.263" y1="37.6757" x2="513.263" y2="1.67573" stroke="white" stroke-width="2"/>
<line y1="-1" x2="48.8365" y2="-1" transform="matrix(0.675725 -0.737154 -0.737154 -0.675725 481 37)" stroke="white" stroke-width="2"/>
<line y1="-1" x2="48.8365" y2="-1" transform="matrix(0.675725 -0.737154 -0.737154 -0.675725 481 37)" stroke="white" stroke-width="2"/>
<line y1="-1" x2="48.8365" y2="-1" transform="matrix(-0.675725 0.737154 0.737154 0.675725 579 3)" stroke="white" stroke-width="2"/>
<line y1="-1" x2="48.8365" y2="-1" transform="matrix(-0.675725 0.737154 0.737154 0.675725 579 3)" stroke="white" stroke-width="2"/>
<line x1="513.737" y1="2.32428" x2="546.737" y2="38.3243" stroke="white" stroke-width="2"/>
<line x1="513.737" y1="2.32428" x2="546.737" y2="38.3243" stroke="white" stroke-width="2"/>
<line y1="-1" x2="48.8365" y2="-1" transform="matrix(-0.675725 0.737154 0.737154 0.675725 643 3)" stroke="white" stroke-width="2"/>
<line y1="-1" x2="48.8365" y2="-1" transform="matrix(-0.675725 0.737154 0.737154 0.675725 643 3)" stroke="white" stroke-width="2"/>
<line x1="577.737" y1="2.32428" x2="610.737" y2="38.3243" stroke="white" stroke-width="2"/>
<line x1="577.737" y1="2.32428" x2="610.737" y2="38.3243" stroke="white" stroke-width="2"/>
<line x1="610.263" y1="37.6757" x2="577.263" y2="1.67573" stroke="white" stroke-width="2"/>
<line x1="610.263" y1="37.6757" x2="577.263" y2="1.67573" stroke="white" stroke-width="2"/>
<line y1="-1" x2="48.8365" y2="-1" transform="matrix(0.675725 -0.737154 -0.737154 -0.675725 545 37)" stroke="white" stroke-width="2"/>
<line y1="-1" x2="48.8365" y2="-1" transform="matrix(0.675725 -0.737154 -0.737154 -0.675725 545 37)" stroke="white" stroke-width="2"/>
<line x1="674.263" y1="37.6757" x2="641.263" y2="1.67573" stroke="white" stroke-width="2"/>
<line x1="674.263" y1="37.6757" x2="641.263" y2="1.67573" stroke="white" stroke-width="2"/>
<line y1="-1" x2="48.8365" y2="-1" transform="matrix(0.675725 -0.737154 -0.737154 -0.675725 609 37)" stroke="white" stroke-width="2"/>
<line y1="-1" x2="48.8365" y2="-1" transform="matrix(0.675725 -0.737154 -0.737154 -0.675725 609 37)" stroke="white" stroke-width="2"/>
<line y1="-1" x2="48.8365" y2="-1" transform="matrix(-0.675725 0.737154 0.737154 0.675725 707 3)" stroke="white" stroke-width="2"/>
<line y1="-1" x2="48.8365" y2="-1" transform="matrix(-0.675725 0.737154 0.737154 0.675725 707 3)" stroke="white" stroke-width="2"/>
<line x1="641.737" y1="2.32428" x2="674.737" y2="38.3243" stroke="white" stroke-width="2"/>
<line x1="641.737" y1="2.32428" x2="674.737" y2="38.3243" stroke="white" stroke-width="2"/>
<line y1="-1" x2="48.8365" y2="-1" transform="matrix(-0.675725 0.737154 0.737154 0.675725 771 3)" stroke="white" stroke-width="2"/>
<line y1="-1" x2="48.8365" y2="-1" transform="matrix(-0.675725 0.737154 0.737154 0.675725 771 3)" stroke="white" stroke-width="2"/>
<line x1="705.737" y1="2.32428" x2="738.737" y2="38.3243" stroke="white" stroke-width="2"/>
<line x1="705.737" y1="2.32428" x2="738.737" y2="38.3243" stroke="white" stroke-width="2"/>
<line x1="738.263" y1="37.6757" x2="705.263" y2="1.67573" stroke="white" stroke-width="2"/>
<line x1="738.263" y1="37.6757" x2="705.263" y2="1.67573" stroke="white" stroke-width="2"/>
<line y1="-1" x2="48.8365" y2="-1" transform="matrix(0.675725 -0.737154 -0.737154 -0.675725 673 37)" stroke="white" stroke-width="2"/>
<line y1="-1" x2="48.8365" y2="-1" transform="matrix(0.675725 -0.737154 -0.737154 -0.675725 673 37)" stroke="white" stroke-width="2"/>
<line x1="802.263" y1="37.6757" x2="769.263" y2="1.67573" stroke="white" stroke-width="2"/>
<line x1="802.263" y1="37.6757" x2="769.263" y2="1.67573" stroke="white" stroke-width="2"/>
<line y1="-1" x2="48.8365" y2="-1" transform="matrix(0.675725 -0.737154 -0.737154 -0.675725 737 37)" stroke="white" stroke-width="2"/>
<line y1="-1" x2="48.8365" y2="-1" transform="matrix(0.675725 -0.737154 -0.737154 -0.675725 737 37)" stroke="white" stroke-width="2"/>
<line y1="-1" x2="48.8365" y2="-1" transform="matrix(-0.675725 0.737154 0.737154 0.675725 836 4)" stroke="white" stroke-width="2"/>
<line y1="-1" x2="48.8365" y2="-1" transform="matrix(-0.675725 0.737154 0.737154 0.675725 836 4)" stroke="white" stroke-width="2"/>
<line x1="770.737" y1="3.32428" x2="803.737" y2="39.3243" stroke="white" stroke-width="2"/>
<line x1="770.737" y1="3.32428" x2="803.737" y2="39.3243" stroke="white" stroke-width="2"/>
<line y1="-1" x2="48.8365" y2="-1" transform="matrix(-0.675725 0.737154 0.737154 0.675725 900 4)" stroke="white" stroke-width="2"/>
<line y1="-1" x2="48.8365" y2="-1" transform="matrix(-0.675725 0.737154 0.737154 0.675725 900 4)" stroke="white" stroke-width="2"/>
<line x1="834.737" y1="3.32428" x2="867.737" y2="39.3243" stroke="white" stroke-width="2"/>
<line x1="834.737" y1="3.32428" x2="867.737" y2="39.3243" stroke="white" stroke-width="2"/>
<line x1="867.263" y1="38.6757" x2="834.263" y2="2.67573" stroke="white" stroke-width="2"/>
<line x1="867.263" y1="38.6757" x2="834.263" y2="2.67573" stroke="white" stroke-width="2"/>
<line y1="-1" x2="48.8365" y2="-1" transform="matrix(0.675725 -0.737154 -0.737154 -0.675725 802 38)" stroke="white" stroke-width="2"/>
<line y1="-1" x2="48.8365" y2="-1" transform="matrix(0.675725 -0.737154 -0.737154 -0.675725 802 38)" stroke="white" stroke-width="2"/>
<line x1="931.263" y1="38.6757" x2="898.263" y2="2.67573" stroke="white" stroke-width="2"/>
<line x1="931.263" y1="38.6757" x2="898.263" y2="2.67573" stroke="white" stroke-width="2"/>
<line y1="-1" x2="48.8365" y2="-1" transform="matrix(0.675725 -0.737154 -0.737154 -0.675725 866 38)" stroke="white" stroke-width="2"/>
<line y1="-1" x2="48.8365" y2="-1" transform="matrix(0.675725 -0.737154 -0.737154 -0.675725 866 38)" stroke="white" stroke-width="2"/>
<line y1="-1" x2="48.8365" y2="-1" transform="matrix(-0.675725 0.737154 0.737154 0.675725 194 2)" stroke="white" stroke-width="2"/>
<line y1="-1" x2="48.8365" y2="-1" transform="matrix(-0.675725 0.737154 0.737154 0.675725 194 2)" stroke="white" stroke-width="2"/>
<line x1="128.737" y1="1.32428" x2="161.737" y2="37.3243" stroke="white" stroke-width="2"/>
<line x1="128.737" y1="1.32428" x2="161.737" y2="37.3243" stroke="white" stroke-width="2"/>
<line y1="-1" x2="48.8365" y2="-1" transform="matrix(-0.675725 0.737154 0.737154 0.675725 258 2)" stroke="white" stroke-width="2"/>
<line y1="-1" x2="48.8365" y2="-1" transform="matrix(-0.675725 0.737154 0.737154 0.675725 258 2)" stroke="white" stroke-width="2"/>
<line x1="192.737" y1="1.32428" x2="225.737" y2="37.3243" stroke="white" stroke-width="2"/>
<line x1="192.737" y1="1.32428" x2="225.737" y2="37.3243" stroke="white" stroke-width="2"/>
<line x1="225.263" y1="36.6757" x2="192.263" y2="0.675727" stroke="white" stroke-width="2"/>
<line x1="225.263" y1="36.6757" x2="192.263" y2="0.675727" stroke="white" stroke-width="2"/>
<line y1="-1" x2="48.8365" y2="-1" transform="matrix(0.675725 -0.737154 -0.737154 -0.675725 160 36)" stroke="white" stroke-width="2"/>
<line y1="-1" x2="48.8365" y2="-1" transform="matrix(0.675725 -0.737154 -0.737154 -0.675725 160 36)" stroke="white" stroke-width="2"/>
<line x1="289.263" y1="36.6757" x2="256.263" y2="0.675727" stroke="white" stroke-width="2"/>
<line x1="289.263" y1="36.6757" x2="256.263" y2="0.675727" stroke="white" stroke-width="2"/>
<line y1="-1" x2="48.8365" y2="-1" transform="matrix(0.675725 -0.737154 -0.737154 -0.675725 224 36)" stroke="white" stroke-width="2"/>
<line y1="-1" x2="48.8365" y2="-1" transform="matrix(0.675725 -0.737154 -0.737154 -0.675725 224 36)" stroke="white" stroke-width="2"/>
</svg>
